Coordinates
version=1
nRows=31
nColumns=33
inDegrees=yes

Units are S.I. units (second, meters, Newtons, ...)
Angles are in degrees.

endheader
time	ground_thorax_rot_x	ground_thorax_rot_y	ground_thorax_rot_z	ground_thorax_tx	ground_thorax_ty	ground_thorax_tz	clav_prot_r	clav_elev_r	scapula_abduction_r	scapula_elevation_r	scapula_upward_rot_r	scapula_winging_r	shoulder_elv_r	plane_of_elev_r	axial_rot_r	elbow_flexion_r	pro_sup_r	wrist_flex_r	wrist_dev_r	clav_prot_l	clav_elev_l	scapula_abduction_l	scapula_elevation_l	scapula_upward_rot_l	scapula_winging_l	shoulder_elv_l	plane_of_elev_l	axial_rot_l	elbow_flexion_l	pro_sup_l	wrist_flex_l	wrist_dev_l	
5.3100	-90.000000	90.000000	-90.000000	-240.347001	833.111327	8.637442	26.958917	39.679983	45.000000	45.000000	9.766690	-3977.711679	641.994987	158.204761	3.271765	1813.104952	24.217221	18.691054	3.971863	-45.000000	1.618916	33.755251	-12.692315	-45.000000	1906.788918	-4018.504175	148.503445	20.788503	-709.226324	13.106349	3.629045	-19.834905	
5.3200	-90.000000	90.000000	-90.000000	-241.388284	833.151231	8.706711	26.891785	39.662811	45.000000	45.000000	9.838377	-3977.645588	642.042242	158.169793	3.559847	1813.158613	24.678451	18.635575	3.865304	-45.000000	1.684906	33.670945	-12.715161	-45.000000	1906.750866	-4018.417543	148.458244	20.509461	-709.174880	13.911889	3.446913	-19.791381	
5.3300	-90.000000	90.000000	-90.000000	-242.414888	833.179797	8.769729	26.823112	39.652969	45.000000	45.000000	9.878478	-3977.573474	642.118705	158.139107	3.863630	1813.209175	25.149813	18.583091	3.781161	-45.000000	1.753136	33.590393	-12.745155	-45.000000	1906.708364	-4018.333829	148.411396	20.237393	-709.120162	14.734730	3.273910	-19.746311	
5.3400	-90.000000	90.000000	-90.000000	-243.425591	833.197778	8.828427	26.758590	39.636165	45.000000	45.000000	9.934862	-3977.510430	642.173589	158.104622	4.145686	1813.259777	25.622686	18.523340	3.684631	-45.000000	1.824659	33.510204	-12.778772	-45.000000	1906.665483	-4018.251208	148.364313	19.980316	-709.066832	15.574078	3.099225	-19.698320	
5.3500	-90.000000	90.000000	-90.000000	-244.420190	833.205917	8.884497	26.693144	39.623508	45.000000	45.000000	9.967436	-3977.446417	642.249739	158.075432	4.435796	1813.295862	26.108557	18.462325	3.604660	-45.000000	1.893969	33.437447	-12.826627	-45.000000	1906.620536	-4018.174335	148.311382	19.732932	-709.024963	16.436366	2.931614	-19.645327	
5.3600	-90.000000	90.000000	-90.000000	-245.398786	833.204703	8.939298	26.632179	39.602820	45.000000	45.000000	10.024685	-3977.384758	642.297293	158.042200	4.700965	1813.351143	26.600031	18.396218	3.504501	-45.000000	1.964129	33.364377	-12.877980	-45.000000	1906.579781	-4018.100345	148.258614	19.498964	-708.994620	17.318048	2.764437	-19.587413	
5.3700	-90.000000	90.000000	-90.000000	-246.362065	833.194379	8.993873	26.569266	39.587397	45.000000	45.000000	10.057194	-3977.318797	642.369017	158.016816	4.983714	1813.396603	27.113667	18.329768	3.418875	-45.000000	2.030100	33.297097	-12.940217	-45.000000	1906.538743	-4018.032124	148.203651	19.275643	-708.976438	18.221227	2.602838	-19.523703	
5.3800	-90.000000	90.000000	-90.000000	-247.310500	833.174989	9.048900	26.508639	39.566931	45.000000	45.000000	10.106466	-3977.260660	642.423110	157.985388	5.250136	1813.444595	27.651784	18.256714	3.319025	-45.000000	2.094490	33.230435	-13.002508	-45.000000	1906.502095	-4017.967675	148.150524	19.066963	-708.963365	19.148305	2.441646	-19.455463	
5.3900	-90.000000	90.000000	-90.000000	-248.244094	833.146634	9.104702	26.446523	39.550893	45.000000	45.000000	10.144263	-3977.194307	642.492859	157.969736	5.529482	1813.475541	28.225872	18.179849	3.230334	-45.000000	2.155703	33.158092	-13.060309	-45.000000	1906.469788	-4017.913808	148.105793	18.866771	-708.949367	20.094891	2.286033	-19.384537	
5.4000	-90.000000	90.000000	-90.000000	-249.162188	833.109587	9.161290	26.386685	39.530663	45.000000	45.000000	10.201874	-3977.139829	642.542578	157.942277	5.792384	1813.516811	28.834075	18.096923	3.126523	-45.000000	2.215052	33.084010	-13.107437	-45.000000	1906.439831	-4017.859158	148.065055	18.677682	-708.923205	21.057190	2.130295	-19.312072	
5.4100	-90.000000	90.000000	-90.000000	-250.063459	833.064398	9.218446	26.324406	39.516205	45.000000	45.000000	10.244710	-3977.073544	642.610452	157.941289	6.071741	1813.536109	29.483833	18.011020	3.040448	-45.000000	2.269063	33.005344	-13.151516	-45.000000	1906.414165	-4017.811188	148.028037	18.491186	-708.900400	22.029659	1.983308	-19.237985	
5.4200	-90.000000	90.000000	-90.000000	-250.946371	833.011745	9.275813	26.263421	39.497585	45.000000	45.000000	10.298689	-3977.031627	642.663900	157.920049	6.332109	1813.553919	30.177726	17.917607	2.946055	-45.000000	2.317813	32.935225	-13.194258	-45.000000	1906.386443	-4017.757645	147.986467	18.318306	-708.869516	23.021512	1.835194	-19.160907	
5.4300	-90.000000	90.000000	-90.000000	-251.808931	832.952325	9.332942	26.202020	39.483346	45.000000	45.000000	10.348132	-3976.975998	642.724021	157.918857	6.599057	1813.572887	30.909373	17.826502	2.865384	-45.000000	2.361082	32.866134	-13.233779	-45.000000	1906.362157	-4017.703764	147.940701	18.142759	-708.831589	24.021552	1.698522	-19.087671	
5.4400	-90.000000	90.000000	-90.000000	-252.649942	832.886598	9.389420	26.142446	39.466628	45.000000	45.000000	10.402184	-3976.950286	642.773665	157.877919	6.851660	1813.617868	31.673580	17.734085	2.775264	-45.000000	2.399644	32.811461	-13.273148	-45.000000	1906.330033	-4017.637912	147.888407	17.979146	-708.777136	25.030416	1.556646	-19.010969	
5.4500	-90.000000	90.000000	-90.000000	-253.468472	832.814751	9.444894	26.081566	39.456292	45.000000	45.000000	10.442290	-3976.905540	642.839348	157.866775	7.119222	1813.655246	32.462041	17.648361	2.708687	-45.000000	2.437445	32.746925	-13.306483	-45.000000	1906.306554	-4017.576268	147.841287	17.808575	-708.722680	26.036189	1.429476	-18.938546	
5.4600	-90.000000	90.000000	-90.000000	-254.264927	832.736540	9.499187	26.021924	39.442554	45.000000	45.000000	10.481508	-3976.893373	642.901075	157.818837	7.370487	1813.699933	33.278004	17.557732	2.636240	-45.000000	2.473908	32.686185	-13.338401	-45.000000	1906.277131	-4017.513071	147.800520	17.654915	-708.658644	27.051467	1.293755	-18.858367	
5.4700	-90.000000	90.000000	-90.000000	-255.039479	832.651505	9.552237	25.963550	39.431451	45.000000	45.000000	10.522996	-3976.860869	642.962808	157.797983	7.625453	1813.749010	34.106251	17.473354	2.577147	-45.000000	2.511043	32.617879	-13.364880	-45.000000	1906.254070	-4017.452015	147.758478	17.492117	-708.579758	28.059685	1.173719	-18.788114	
5.4800	-90.000000	90.000000	-90.000000	-255.793256	832.558902	9.604175	25.907194	39.415347	45.000000	45.000000	10.570467	-3976.858395	643.014988	157.741882	7.863106	1813.815454	34.948532	17.380293	2.502932	-45.000000	2.545663	32.558538	-13.398008	-45.000000	1906.221383	-4017.389566	147.719158	17.346564	-708.502182	29.067653	1.042379	-18.705612	
5.4900	-90.000000	90.000000	-90.000000	-256.526557	832.457993	9.655180	25.851261	39.402238	45.000000	45.000000	10.617929	-3976.830605	643.071893	157.724795	8.110015	1813.871912	35.794942	17.293876	2.447010	-45.000000	2.584052	32.481938	-13.427779	-45.000000	1906.205281	-4017.343822	147.687166	17.193435	-708.444184	30.061812	0.932010	-18.628222	
5.5000	-90.000000	90.000000	-90.000000	-257.240286	832.347898	9.705537	25.796756	39.385572	45.000000	45.000000	10.668491	-3976.832574	643.124656	157.673111	8.342102	1813.935297	36.649709	17.195941	2.376436	-45.000000	2.619396	32.418905	-13.465897	-45.000000	1906.179202	-4017.299388	147.658587	17.063479	-708.397729	31.049306	0.810628	-18.535985	
5.5100	-90.000000	90.000000	-90.000000	-257.934245	832.227847	9.755490	25.742440	39.372812	45.000000	45.000000	10.716403	-3976.809976	643.185718	157.650824	8.587786	1813.996517	37.504203	17.109434	2.325460	-45.000000	2.656720	32.355612	-13.502750	-45.000000	1906.161670	-4017.259276	147.621963	16.926856	-708.346217	32.016503	0.711089	-18.457788	
5.5200	-90.000000	90.000000	-90.000000	-258.608670	832.096949	9.805342	25.688786	39.359114	45.000000	45.000000	10.764758	-3976.807791	643.246381	157.600951	8.825066	1814.069821	38.360425	17.013287	2.261273	-45.000000	2.690907	32.309394	-13.547152	-45.000000	1906.133052	-4017.215853	147.587154	16.810379	-708.299801	32.966282	0.601608	-18.367242	
5.5300	-90.000000	90.000000	-90.000000	-259.262459	831.954532	9.855347	25.633197	39.350206	45.000000	45.000000	10.805410	-3976.754239	643.323682	157.603320	9.083911	1814.146532	39.215174	16.937648	2.226983	-45.000000	2.730069	32.246286	-13.589015	-45.000000	1906.123541	-4017.192400	147.554527	16.687948	-708.259224	33.891288	0.518844	-18.292510	
5.5400	-90.000000	90.000000	-90.000000	-259.895153	831.799782	9.905879	25.578009	39.340480	45.000000	45.000000	10.848662	-3976.716539	643.398957	157.580217	9.333133	1814.238180	40.079082	16.851448	2.178473	-45.000000	2.764219	32.202352	-13.636168	-45.000000	1906.101833	-4017.160991	147.521812	16.588561	-708.211605	34.802836	0.426626	-18.208801	
5.5500	-90.000000	90.000000	-90.000000	-260.505174	831.632147	9.957325	25.523596	39.332592	45.000000	45.000000	10.897896	-3976.657806	643.472517	157.578952	9.593447	1814.334934	40.948411	16.777285	2.146202	-45.000000	2.801178	32.161407	-13.684020	-45.000000	1906.086775	-4017.131768	147.477857	16.486170	-708.146910	35.694168	0.354705	-18.143913	
5.5600	-90.000000	90.000000	-90.000000	-261.091270	831.451125	10.010181	25.470953	39.325666	45.000000	45.000000	10.954199	-3976.641997	643.536734	157.536612	9.840193	1814.429628	41.824375	16.681470	2.091943	-45.000000	2.834221	32.135740	-13.729858	-45.000000	1906.059440	-4017.093733	147.444520	16.408646	-708.079184	36.565170	0.268062	-18.063680	
5.5700	-90.000000	90.000000	-90.000000	-261.651010	831.256677	10.064915	25.419158	39.320563	45.000000	45.000000	11.015351	-3976.615123	643.600074	157.511887	10.095201	1814.514781	42.701367	16.595078	2.055543	-45.000000	2.871749	32.103169	-13.769458	-45.000000	1906.045960	-4017.067801	147.415237	16.332070	-708.018960	37.408444	0.199983	-17.994906	
5.5800	-90.000000	90.000000	-90.000000	-262.182222	831.048992	10.122002	25.368575	39.318657	45.000000	45.000000	11.080824	-3976.621853	643.658415	157.452111	10.333701	1814.603213	43.577436	16.488557	1.998030	-45.000000	2.905516	32.081707	-13.802544	-45.000000	1906.023850	-4017.037628	147.403169	16.282864	-707.967774	38.222541	0.118011	-17.907641	
5.5900	-90.000000	90.000000	-90.000000	-262.682098	830.828753	10.181793	25.319649	39.315974	45.000000	45.000000	11.152412	-3976.615199	643.711568	157.410899	10.575378	1814.687498	44.450912	16.395536	1.960923	-45.000000	2.940734	32.067816	-13.832046	-45.000000	1906.011504	-4017.005679	147.382161	16.232267	-707.914831	39.004688	0.056807	-17.838921	
5.6000	-90.000000	90.000000	-90.000000	-263.147663	830.597164	10.244453	25.270841	39.318779	45.000000	45.000000	11.219193	-3976.618850	643.768565	157.358516	10.801869	1814.778625	45.322593	16.290214	1.912424	-45.000000	2.972240	32.054948	-13.854714	-45.000000	1905.995924	-4016.976664	147.381309	16.205792	-707.871455	39.754931	-0.014530	-17.754695	
5.6100	-90.000000	90.000000	-90.000000	-263.575421	830.356032	10.309893	25.223766	39.318782	45.000000	45.000000	11.287415	-3976.594190	643.822928	157.340311	11.028104	1814.865413	46.199964	16.204963	1.892737	-45.000000	3.004560	32.040254	-13.873551	-45.000000	1905.994139	-4016.952600	147.372939	16.177837	-707.820084	40.478807	-0.063533	-17.693358	
